<?xml version="1.0" encoding="UTF-8"?>
<svg id="Layer_1" data-name="Layer 1" xmlns="http://www.w3.org/2000/svg" viewBox="0 0 202.243 156.177">
  <defs>
    <style>
      .cls-1 {
        fill: #f94239;
        stroke-width: 0px;
      }
    </style>
  </defs>
  <polygon class="cls-1" points="77.952 109.707 77.944 109.692 116.962 42.216 92.597 0 77.948 25.291 87.709 42.216 82.824 50.699 53.576 .053 39.001 25.333 68.208 75.982 63.355 84.419 14.632 .012 0 25.329 63.324 135.094 77.952 109.707"/>
  <polygon class="cls-1" points="165.669 92.852 185.137 59.153 170.517 33.778 99.864 156.177 129.084 156.177 151.044 118.165 160.699 134.958 160.719 134.925 172.99 156.177 202.243 156.177 165.669 92.852"/>
  <polygon class="cls-1" points="151.074 .053 60.925 156.177 90.161 156.177 165.649 25.333 151.074 .053"/>
</svg>