<?xml version="1.0" encoding="UTF-8"?>
<svg id="Layer_1" data-name="Layer 1" xmlns="http://www.w3.org/2000/svg" viewBox="0 0 300 300">
  <defs>
    <style>
      .cls-1 {
        fill: #fff;
        stroke-width: 0px;
      }
    </style>
  </defs>
  <polygon class="cls-1" points="124.709 177.53 124.701 177.515 163.719 110.039 139.354 67.823 124.705 93.114 134.466 110.039 129.581 118.522 100.333 67.876 85.758 93.156 114.965 143.805 110.112 152.242 61.389 67.835 46.757 93.152 110.081 202.917 124.709 177.53"/>
  <polygon class="cls-1" points="212.426 160.675 231.894 126.976 217.274 101.601 146.621 224 175.841 224 197.801 185.988 207.456 202.781 207.476 202.748 219.747 224 249 224 212.426 160.675"/>
  <polygon class="cls-1" points="197.831 67.876 107.682 224 136.918 224 212.406 93.156 197.831 67.876"/>
</svg>