<?xml version="1.0" encoding="UTF-8"?>
<svg id="Layer_1" data-name="Layer 1" xmlns="http://www.w3.org/2000/svg" viewBox="0 0 219.752 47.462">
  <defs>
    <style>
      .cls-1 {
        fill: #000;
      }

      .cls-1, .cls-2 {
        stroke-width: 0px;
      }

      .cls-2 {
        fill: #fff;
      }
    </style>
  </defs>
  <g>
    <rect class="cls-1" x="-244.271" y="-7.838" width="466" height="72"/>
    <path class="cls-1" d="M221.229-7.338V63.662H-243.771V-7.338H221.229M222.229-8.338H-244.771v73H222.229V-8.338h0Z"/>
  </g>
  <g>
    <path class="cls-2" d="M1.292,26.715c.038-4.711,4.711-5.699,8.625-6.155,3.04-.342,5.281-.456,5.319-2.052-.038-1.976-1.558-3.268-4.142-3.268-2.66,0-4.559,1.444-4.825,3.534H1.748c.418-4.255,4.218-7.219,9.423-7.219,5.433,0,8.435,2.964,8.435,7.257v9.119c0,.57.304.874.988.874h1.102v3.496h-2.128c-2.051,0-3.305-.836-3.647-2.355-.076-.19-.152-.456-.19-.684-1.178,2.166-3.381,3.458-6.801,3.458-4.635,0-7.675-2.242-7.637-6.003ZM15.236,24.739v-2.812c-.76,1.178-2.698,1.444-4.825,1.71-2.508.304-4.598.646-4.598,2.773,0,1.748,1.406,2.773,4.027,2.773,3.078,0,5.396-1.748,5.396-4.445Z"/>
    <path class="cls-2" d="M24.357,33.439h4.483c0,1.9,2.014,3.42,5.015,3.42,3.572,0,5.434-2.128,5.434-5.167v-2.85c-1.292,1.938-3.534,3.154-6.421,3.154-5.395,0-9.271-4.18-9.271-10.183,0-6.041,3.875-10.259,9.232-10.259,3.154,0,5.699,1.482,6.953,3.724l.38-3.116h3.572v19.529c0,5.319-3.762,8.815-9.879,8.815-5.623,0-9.499-2.736-9.499-7.067ZM39.289,21.775c0-3.799-2.28-6.421-5.547-6.421s-5.509,2.622-5.509,6.459c0,3.799,2.242,6.421,5.509,6.421s5.547-2.66,5.547-6.459Z"/>
    <path class="cls-2" d="M47.195,22.307c0-6.649,4.369-10.752,9.993-10.752,5.699,0,9.499,3.99,9.612,10.524v1.064h-15.122c.304,3.534,2.508,5.927,5.927,5.927,2.317,0,4.065-1.14,4.749-3.153h4.37c-1.026,4.331-4.408,6.953-9.157,6.953-6.155,0-10.373-4.407-10.373-10.562ZM62.165,19.99c-.57-2.888-2.355-4.635-4.977-4.635-2.66,0-4.635,1.748-5.319,4.635h10.296Z"/>
    <path class="cls-2" d="M70.298,32.3V12.163h3.609l.38,2.964c1.254-2.09,3.799-3.572,6.801-3.572,4.293,0,7.105,2.888,7.105,7.409v13.336h-4.483v-13.108c0-2.242-1.482-3.724-3.99-3.724-2.925,0-4.901,2.014-4.939,4.635v12.196h-4.483Z"/>
    <path class="cls-2" d="M91.426,22.079c0-6.611,4.445-10.524,10.296-10.524,5.509,0,9.233,3.382,9.613,8.397h-4.407c-.418-2.773-2.394-4.56-5.244-4.56-3.419,0-5.699,2.584-5.699,6.687,0,4.408,2.507,6.953,5.851,6.953,2.735,0,4.635-1.748,5.091-4.635h4.407c-.532,5.205-4.142,8.473-9.499,8.473-6.573,0-10.411-4.711-10.411-10.791Z"/>
    <path class="cls-2" d="M113.581,39.898v-3.799h3.647c1.671,0,2.583-.608,2.963-1.671l.798-2.128h-.836l-7.979-20.137h4.825l5.775,15.274,5.661-15.274h4.673l-8.776,23.595c-1.026,2.698-3.154,4.141-7.105,4.141h-3.647Z"/>
    <path class="cls-2" d="M132.125,29.868c0-1.634,1.254-2.888,2.888-2.888,1.671,0,2.925,1.254,2.925,2.888,0,1.672-1.254,2.926-2.925,2.926-1.634,0-2.888-1.254-2.888-2.926Z"/>
    <path class="cls-2" d="M140.598,22.079c0-6.611,4.445-10.524,10.296-10.524,5.509,0,9.233,3.382,9.613,8.397h-4.407c-.418-2.773-2.394-4.56-5.244-4.56-3.419,0-5.699,2.584-5.699,6.687,0,4.408,2.507,6.953,5.851,6.953,2.735,0,4.635-1.748,5.091-4.635h4.407c-.532,5.205-4.142,8.473-9.499,8.473-6.573,0-10.411-4.711-10.411-10.791Z"/>
    <path class="cls-2" d="M162.942,22.042c0-6.573,4.445-10.487,10.334-10.487,6.497,0,10.296,4.56,10.296,10.487,0,6.801-4.293,10.828-10.296,10.828-6.535,0-10.334-4.597-10.334-10.828ZM179.014,22.042c0-3.99-2.242-6.649-5.737-6.649s-5.775,2.66-5.775,6.649c0,4.407,2.469,6.991,5.775,6.991,3.609,0,5.737-2.963,5.737-6.991Z"/>
    <path class="cls-2" d="M187.072,32.3V12.163h3.609l.342,2.812c1.254-1.976,3.724-3.42,6.725-3.42,2.888,0,5.091,1.444,6.155,3.762,1.14-2.128,3.723-3.762,6.915-3.762,4.217,0,6.915,3.002,6.915,7.333v13.412h-4.521v-13.184c0-2.242-1.368-3.686-3.534-3.686-3.078,0-5.015,2.014-5.053,4.673v12.196h-4.483v-13.184c0-2.242-1.368-3.686-3.533-3.686-3.078,0-5.016,2.014-5.053,4.673v12.196h-4.483Z"/>
  </g>
</svg>