<?xml version="1.0" encoding="UTF-8"?>
<svg id="Layer_1" data-name="Layer 1" xmlns="http://www.w3.org/2000/svg" viewBox="0 0 377.88 36.66">
  <defs>
    <style>
      .cls-1 {
        fill: #fff;
        stroke-width: 0px;
      }
    </style>
  </defs>
  <path class="cls-1" d="M5.965,27.926L0,7.789h4.597l4.065,14.59,3.989-14.59h3.724l4.027,14.438,3.989-14.438h4.598l-5.965,20.137h-4.635l-3.875-13.754-3.837,13.754h-4.711ZM30.362,17.934c0-6.649,4.369-10.753,9.993-10.753,5.699,0,9.499,3.99,9.612,10.524v1.064h-15.122c.304,3.533,2.508,5.927,5.927,5.927,2.317,0,4.065-1.14,4.749-3.153h4.37c-1.026,4.331-4.408,6.953-9.157,6.953-6.155,0-10.373-4.408-10.373-10.562ZM45.332,15.615c-.57-2.887-2.355-4.635-4.977-4.635-2.66,0-4.635,1.748-5.319,4.635h10.296ZM52.325,22.835c0-4.598,3.8-5.661,8.283-6.193,4.065-.494,7.029-.456,7.447-2.584.57-2.812-1.368-5.053-5.281-5.053-2.926,0-6.003,1.292-6.953,4.826h-1.672c1.064-4.408,4.826-6.345,8.853-6.345,4.559,0,7.485,2.698,6.573,7.219l-1.899,9.347c-.304,1.443-.152,2.394,1.52,2.394h.798l-.304,1.481h-.76c-1.976,0-2.925-1.025-2.925-2.697,0-.418.038-.836.152-1.33-1.672,2.773-4.179,4.218-7.523,4.218-3.723,0-6.307-2.015-6.307-5.281ZM67.105,18.807l.532-2.545c-1.026,1.367-3.762,1.443-6.421,1.747-3.914.418-7.257,1.103-7.257,4.75,0,2.317,1.938,3.837,4.939,3.837,4.445,0,7.143-2.697,8.207-7.789ZM74.137,20.973l2.697-13.184h1.672l-2.697,13.222c-.684,3.42.912,5.623,4.483,5.623,3.8,0,6.915-2.583,7.903-6.839l2.432-12.006h1.672l-4.104,20.137h-1.292l.608-4.065c-1.596,2.697-4.255,4.331-7.675,4.331-4.142,0-6.611-2.697-5.699-7.219ZM101.116,27.926c-3.344,0-4.863-1.861-4.104-5.547l2.66-13.108h-4.065l.304-1.482h4.065l1.406-6.877h1.671l-1.406,6.877h5.965l-.304,1.482h-5.965l-2.66,13.108c-.57,2.812.228,4.065,2.735,4.065h2.052l-.304,1.481h-2.052ZM108.034,20.327c0-6.725,4.293-12.842,11.208-12.842,4.293,0,7.371,2.507,7.371,7.789,0,6.649-4.179,12.918-11.246,12.918-4.673,0-7.333-3.191-7.333-7.864ZM124.903,15.35c0-3.989-2.166-6.307-5.965-6.307-5.661,0-9.195,5.433-9.195,11.056,0,4.445,2.546,6.535,6.003,6.535,5.623,0,9.156-5.547,9.156-11.284ZM128.972,27.926l4.103-20.137h1.292l-.646,4.218c1.748-2.698,4.75-4.521,7.75-4.521,3.116,0,4.978,1.862,5.13,4.939,1.71-2.925,4.825-4.939,7.979-4.939,3.838,0,5.813,2.773,4.978,7.219l-2.47,13.222h-1.672l2.47-13.108c.646-3.458-.57-5.775-3.838-5.775-3.647,0-7.066,2.812-7.864,6.953l-2.242,11.931h-1.634l2.47-13.108c.646-3.458-.569-5.775-3.837-5.775-3.647,0-6.915,2.812-7.865,6.916l-2.432,11.968h-1.671ZM162.791,22.835c0-4.598,3.8-5.661,8.283-6.193,4.065-.494,7.028-.456,7.446-2.584.57-2.812-1.367-5.053-5.281-5.053-2.925,0-6.003,1.292-6.952,4.826h-1.672c1.063-4.408,4.825-6.345,8.853-6.345,4.56,0,7.484,2.698,6.573,7.219l-1.9,9.347c-.304,1.443-.151,2.394,1.521,2.394h.798l-.305,1.481h-.76c-1.976,0-2.926-1.025-2.926-2.697,0-.418.038-.836.152-1.33-1.672,2.773-4.18,4.218-7.522,4.218-3.724,0-6.308-2.015-6.308-5.281ZM177.571,18.807l.531-2.545c-1.025,1.367-3.761,1.443-6.421,1.747-3.913.418-7.257,1.103-7.257,4.75,0,2.317,1.938,3.837,4.939,3.837,4.445,0,7.143-2.697,8.207-7.789ZM190.225,27.926c-3.344,0-4.863-1.861-4.104-5.547l2.66-13.108h-4.065l.304-1.482h4.065l1.405-6.877h1.672l-1.405,6.877h5.965l-.304,1.482h-5.966l-2.659,13.108c-.57,2.812.228,4.065,2.735,4.065h2.052l-.304,1.481h-2.052ZM196.723,27.926l4.104-20.137h1.672l-4.104,20.137h-1.672ZM201.207,1.709c0-.988.76-1.709,1.748-1.709s1.748.722,1.71,1.709-.76,1.748-1.748,1.748-1.748-.76-1.71-1.748ZM204.817,20.327c0-6.725,4.293-12.842,11.208-12.842,4.294,0,7.371,2.507,7.371,7.789,0,6.649-4.18,12.918-11.246,12.918-4.674,0-7.333-3.191-7.333-7.864ZM221.686,15.35c0-3.989-2.165-6.307-5.965-6.307-5.661,0-9.194,5.433-9.194,11.056,0,4.445,2.545,6.535,6.003,6.535,5.623,0,9.156-5.547,9.156-11.284ZM225.754,27.926l4.104-20.137h1.292l-.608,4.142c1.748-2.736,4.788-4.445,7.979-4.445,4.255,0,6.23,2.925,5.281,7.561l-2.622,12.88h-1.672l2.584-12.766c.76-3.761-.418-6.117-4.065-6.117-3.837,0-7.295,2.698-8.169,6.916l-2.432,11.968h-1.672Z"/>
  <g>
    <path class="cls-1" d="M246.063,22.868c.038-4.711,4.711-5.699,8.625-6.155,3.04-.342,5.281-.456,5.319-2.052-.038-1.976-1.558-3.268-4.142-3.268-2.66,0-4.559,1.444-4.825,3.534h-4.521c.418-4.255,4.218-7.219,9.423-7.219,5.433,0,8.435,2.964,8.435,7.257v9.119c0,.57.304.874.988.874h1.102v3.496h-2.128c-2.051,0-3.305-.836-3.647-2.355-.076-.19-.152-.456-.19-.684-1.178,2.166-3.381,3.458-6.801,3.458-4.635,0-7.675-2.242-7.637-6.003ZM260.007,20.892v-2.812c-.76,1.178-2.698,1.444-4.825,1.71-2.508.304-4.598.646-4.598,2.773,0,1.748,1.406,2.773,4.027,2.773,3.078,0,5.396-1.748,5.396-4.445Z"/>
    <path class="cls-1" d="M269.128,29.593h4.483c0,1.9,2.014,3.42,5.015,3.42,3.572,0,5.434-2.128,5.434-5.167v-2.85c-1.292,1.938-3.534,3.154-6.421,3.154-5.395,0-9.271-4.18-9.271-10.183,0-6.041,3.875-10.259,9.232-10.259,3.154,0,5.699,1.482,6.953,3.724l.38-3.116h3.572v19.529c0,5.319-3.762,8.815-9.879,8.815-5.623,0-9.499-2.736-9.499-7.067ZM284.06,17.929c0-3.799-2.28-6.421-5.547-6.421s-5.509,2.622-5.509,6.459c0,3.799,2.242,6.421,5.509,6.421s5.547-2.66,5.547-6.459Z"/>
    <path class="cls-1" d="M291.966,18.46c0-6.649,4.369-10.752,9.993-10.752,5.699,0,9.499,3.99,9.612,10.524v1.064h-15.122c.304,3.534,2.508,5.927,5.927,5.927,2.317,0,4.065-1.14,4.749-3.153h4.37c-1.026,4.331-4.408,6.953-9.157,6.953-6.155,0-10.373-4.407-10.373-10.562ZM306.936,16.143c-.57-2.888-2.355-4.635-4.977-4.635-2.66,0-4.635,1.748-5.319,4.635h10.296Z"/>
    <path class="cls-1" d="M315.069,28.453V8.316h3.609l.38,2.964c1.254-2.09,3.799-3.572,6.801-3.572,4.293,0,7.105,2.888,7.105,7.409v13.336h-4.483v-13.108c0-2.242-1.482-3.724-3.99-3.724-2.925,0-4.901,2.014-4.939,4.635v12.196h-4.483Z"/>
    <path class="cls-1" d="M336.197,18.232c0-6.611,4.445-10.524,10.296-10.524,5.509,0,9.233,3.382,9.613,8.397h-4.407c-.418-2.773-2.394-4.56-5.244-4.56-3.419,0-5.699,2.584-5.699,6.687,0,4.408,2.507,6.953,5.851,6.953,2.735,0,4.635-1.748,5.091-4.635h4.407c-.532,5.205-4.142,8.473-9.499,8.473-6.573,0-10.411-4.711-10.411-10.791Z"/>
    <path class="cls-1" d="M358.352,36.052v-3.799h3.647c1.671,0,2.583-.608,2.963-1.671l.798-2.128h-.836l-7.979-20.137h4.825l5.775,15.274,5.661-15.274h4.673l-8.776,23.595c-1.026,2.698-3.154,4.141-7.105,4.141h-3.647Z"/>
  </g>
</svg>